<svg id="visual" viewBox="0 0 900 600" width="900" height="600" xmlns="http://www.w3.org/2000/svg" xmlns:xlink="http://www.w3.org/1999/xlink" version="1.1"><rect x="0" y="0" width="900" height="600" fill="#001220"></rect><defs><linearGradient id="grad1_0" x1="33.3%" y1="0%" x2="100%" y2="100%"><stop offset="20%" stop-color="#001220" stop-opacity="1"></stop><stop offset="80%" stop-color="#001220" stop-opacity="1"></stop></linearGradient></defs><defs><linearGradient id="grad2_0" x1="0%" y1="0%" x2="66.7%" y2="100%"><stop offset="20%" stop-color="#001220" stop-opacity="1"></stop><stop offset="80%" stop-color="#001220" stop-opacity="1"></stop></linearGradient></defs><g transform="translate(900, 0)"><path d="M0 486.7C-37 443 -74 399.3 -127.6 392.8C-181.3 386.3 -251.6 417.1 -286.1 393.8C-320.6 370.5 -319.3 293.2 -334.1 242.8C-348.9 192.3 -379.9 168.6 -408 132.6C-436.1 96.6 -461.4 48.3 -486.7 0L0 0Z" fill="#faa23c"></path></g><g transform="translate(0, 600)"><path d="M0 -486.7C41.9 -446.2 83.7 -405.7 125.5 -386.1C167.2 -366.6 208.8 -368.1 260.4 -358.4C312 -348.7 373.6 -327.9 393.8 -286.1C414 -244.3 392.8 -181.6 401.3 -130.4C409.9 -79.2 448.3 -39.6 486.7 0L0 0Z" fill="#faa23c"></path></g></svg>