<svg id="visual" viewBox="0 0 900 600" width="900" height="600" xmlns="http://www.w3.org/2000/svg" xmlns:xlink="http://www.w3.org/1999/xlink" version="1.1"><rect x="0" y="0" width="900" height="600" fill="#001220"></rect><defs><linearGradient id="grad1_0" x1="33.3%" y1="0%" x2="100%" y2="100%"><stop offset="20%" stop-color="#faa23c" stop-opacity="1"></stop><stop offset="80%" stop-color="#faa23c" stop-opacity="1"></stop></linearGradient></defs><defs><linearGradient id="grad1_1" x1="33.3%" y1="0%" x2="100%" y2="100%"><stop offset="20%" stop-color="#faa23c" stop-opacity="1"></stop><stop offset="80%" stop-color="#90416d" stop-opacity="1"></stop></linearGradient></defs><defs><linearGradient id="grad1_2" x1="33.3%" y1="0%" x2="100%" y2="100%"><stop offset="20%" stop-color="#001220" stop-opacity="1"></stop><stop offset="80%" stop-color="#90416d" stop-opacity="1"></stop></linearGradient></defs><defs><linearGradient id="grad2_0" x1="0%" y1="0%" x2="66.7%" y2="100%"><stop offset="20%" stop-color="#faa23c" stop-opacity="1"></stop><stop offset="80%" stop-color="#faa23c" stop-opacity="1"></stop></linearGradient></defs><defs><linearGradient id="grad2_1" x1="0%" y1="0%" x2="66.7%" y2="100%"><stop offset="20%" stop-color="#90416d" stop-opacity="1"></stop><stop offset="80%" stop-color="#faa23c" stop-opacity="1"></stop></linearGradient></defs><defs><linearGradient id="grad2_2" x1="0%" y1="0%" x2="66.7%" y2="100%"><stop offset="20%" stop-color="#90416d" stop-opacity="1"></stop><stop offset="80%" stop-color="#001220" stop-opacity="1"></stop></linearGradient></defs><g transform="translate(900, 0)"><path d="M0 270.4C-18.9 251.3 -37.9 232.2 -61.3 228.9C-84.8 225.6 -112.8 238.1 -135.2 234.2C-157.6 230.3 -174.3 210.1 -190.2 190.2C-206.1 170.3 -221 150.8 -221.7 128C-222.4 105.2 -208.7 79.3 -214.4 57.5C-220.2 35.6 -245.3 17.8 -270.4 0L0 0Z" fill="#3a2f54"></path><path d="M0 180.3C-12.6 167.6 -25.2 154.8 -40.9 152.6C-56.5 150.4 -75.2 158.7 -90.1 156.1C-105.1 153.5 -116.2 140.1 -126.8 126.8C-137.4 113.5 -147.4 100.5 -147.8 85.3C-148.2 70.2 -139.1 52.9 -143 38.3C-146.8 23.7 -163.5 11.9 -180.3 0L0 0Z" fill="#db615f"></path><path d="M0 90.1C-6.3 83.8 -12.6 77.4 -20.4 76.3C-28.3 75.2 -37.6 79.4 -45.1 78.1C-52.5 76.8 -58.1 70 -63.4 63.4C-68.7 56.8 -73.7 50.3 -73.9 42.7C-74.1 35.1 -69.6 26.4 -71.5 19.2C-73.4 11.9 -81.8 5.9 -90.1 0L0 0Z" fill="#faa23c"></path></g><g transform="translate(0, 600)"><path d="M0 -270.4C22.2 -263.4 44.4 -256.4 67 -250.2C89.7 -243.9 112.7 -238.3 129.5 -224.3C146.3 -210.3 156.9 -187.8 170.4 -170.4C183.9 -153.1 200.3 -140.9 217.4 -125.5C234.5 -110.1 252.2 -91.4 261.2 -70C270.2 -48.5 270.3 -24.3 270.4 0L0 0Z" fill="#3a2f54"></path><path d="M0 -180.3C14.8 -175.6 29.6 -171 44.7 -166.8C59.8 -162.6 75.1 -158.9 86.3 -149.5C97.5 -140.2 104.6 -125.2 113.6 -113.6C122.6 -102 133.5 -93.9 144.9 -83.7C156.3 -73.4 168.2 -61 174.1 -46.7C180.1 -32.4 180.2 -16.2 180.3 0L0 0Z" fill="#db615f"></path><path d="M0 -90.1C7.4 -87.8 14.8 -85.5 22.3 -83.4C29.9 -81.3 37.6 -79.4 43.2 -74.8C48.8 -70.1 52.3 -62.6 56.8 -56.8C61.3 -51 66.8 -47 72.5 -41.8C78.2 -36.7 84.1 -30.5 87.1 -23.3C90.1 -16.2 90.1 -8.1 90.1 0L0 0Z" fill="#faa23c"></path></g></svg>